Coordinates
version=1
nRows=17
nColumns=40
inDegrees=yes

Units are S.I. units (second, meters, Newtons, ...)
Angles are in degrees.

endheader
time	pelvis_tilt	pelvis_list	pelvis_rotation	pelvis_tx	pelvis_ty	pelvis_tz	hip_flexion_r	hip_adduction_r	hip_rotation_r	knee_angle_r	knee_angle_r_beta	ankle_angle_r	subtalar_angle_r	mtp_angle_r	hip_flexion_l	hip_adduction_l	hip_rotation_l	knee_angle_l	knee_angle_l_beta	ankle_angle_l	subtalar_angle_l	mtp_angle_l	lumbar_extension	lumbar_bending	lumbar_rotation	arm_flex_r	arm_add_r	arm_rot_r	elbow_flex_r	pro_sup_r	wrist_flex_r	wrist_dev_r	arm_flex_l	arm_add_l	arm_rot_l	elbow_flex_l	pro_sup_l	wrist_flex_l	wrist_dev_l
     44.43000000	     -5.08937634	     -5.02253474	     -1.76111536	      0.95615979	      0.93094529	      0.42699149	     30.08734083	     -5.04020855	     -6.61566006	     65.35753756	     65.35753756	      1.85260201	    -15.95088759	      1.24978259	     16.85645065	     -4.73259959	     -6.02841715	     23.40803093	     23.40803093	     14.13765720	    -10.25066237	      1.66228731	    -10.26489109	      5.55658868	      1.71962259	      7.22250609	    -13.62106777	      3.02756982	     40.40774630	     45.66446928	      0.00000000	      0.00000000	     10.35292844	    -13.30243273	     -2.03136424	     44.13825087	     45.85083712	      0.00000000	      0.00000000
     44.44300000	     -5.16209559	     -5.03604303	     -2.04893605	      0.95553661	      0.93173286	      0.42675954	     31.10168992	     -4.83088591	     -6.44579972	     63.65859126	     63.65859126	      2.00097288	    -15.23417501	      1.05919557	     16.02298361	     -4.73786137	     -6.38600210	     22.63754238	     22.63754238	     14.35344308	     -9.92027295	      1.65948037	    -10.27946410	      5.61802029	      1.67615662	      5.09894450	    -13.96287052	      3.10869196	     39.07279046	     45.69770804	      0.00000000	      0.00000000	     11.54706230	    -13.81799658	     -2.32447780	     45.09158707	     45.90691981	      0.00000000	      0.00000000
     44.45600000	     -5.08114271	     -4.99612974	     -2.43583725	      0.95496557	      0.93259650	      0.42671744	     31.84726555	     -4.60711261	     -6.16462287	     61.76171882	     61.76171882	      2.05737693	    -14.46649916	      0.56182122	     14.98527900	     -4.71368926	     -6.95496082	     21.82946745	     21.82946745	     14.54700038	     -9.53280480	      1.49739860	    -10.53004193	      5.52589209	      2.16130976	      3.03627659	    -14.36444739	      3.06370775	     36.96492051	     45.76959593	      0.00000000	      0.00000000	     12.93641545	    -14.20157868	     -2.76472807	     46.63782124	     45.99029640	      0.00000000	      0.00000000
     44.46900000	     -5.12008981	     -4.99459306	     -2.73345583	      0.95438243	      0.93330191	      0.42660112	     32.46178916	     -4.36253327	     -6.01151988	     59.38744374	     59.38744374	      1.50083160	    -14.02223867	     -1.29436112	     14.10662725	     -4.69888165	     -7.36403869	     21.00119267	     21.00119267	     14.36830221	     -9.25186398	      0.64804960	    -10.54880234	      5.55121503	      1.61252383	      2.45585045	    -13.95105877	      1.64837873	     32.61768316	     46.02363217	      0.00000000	      0.00000000	     13.29856803	    -14.92079525	     -3.96706147	     48.89635109	     46.19815133	      0.00000000	      0.00000000
     44.48200000	     -5.10432736	     -4.98071956	     -3.04683624	      0.95383437	      0.93394481	      0.42663431	     32.95121143	     -4.11490587	     -5.85347011	     56.91432472	     56.91432472	      1.67186685	    -13.11125584	     -1.25564196	     13.17411424	     -4.66090935	     -7.77213328	     20.20177976	     20.20177976	     14.53361931	     -8.92326467	      0.62862175	    -10.66883919	      5.52829827	      1.81087205	      0.46826418	    -14.30553197	      1.54385807	     31.28884664	     46.06855919	      0.00000000	      0.00000000	     14.54341049	    -15.34213671	     -4.42288711	     50.03860881	     46.27290437	      0.00000000	      0.00000000
     44.49500000	     -5.22837533	     -5.00483998	     -3.29437110	      0.95315400	      0.93424959	      0.42663517	     33.44633130	     -3.84944294	     -5.79716348	     54.13696789	     54.13696789	      1.75976433	    -12.21472747	     -1.12996131	     12.50166373	     -4.65445961	     -8.04561878	     19.55198094	     19.55198094	     14.69552109	     -8.66143294	      0.57227077	    -10.62745822	      5.64623844	      1.65549067	     -1.29893057	    -14.56263327	      1.44369439	     30.19113546	     46.10658649	      0.00000000	      0.00000000	     15.53561534	    -15.94436925	     -4.82564263	     50.93356777	     46.33368465	      0.00000000	      0.00000000
     44.50800000	     -5.22663730	     -4.97801073	     -3.58031843	      0.95258220	      0.93458071	      0.42689035	     33.60791099	     -3.61727733	     -5.75630712	     50.95724656	     50.95724656	      1.59001255	    -11.33646216	     -2.09712010	     11.61982290	     -4.62555870	     -8.53893885	     18.76818679	     18.76818679	     14.57872758	     -8.24472910	     -0.42998784	    -10.78770106	      5.56165048	      1.51506006	     -2.22880979	    -14.40268930	     -0.31488917	     27.24084026	     46.35379644	      0.00000000	      0.00000000	     15.89607990	    -16.35441984	     -6.37105055	     53.69519716	     46.54649139	      0.00000000	      0.00000000
     44.52100000	     -5.35561655	     -4.97266991	     -3.80795137	      0.95191338	      0.93463018	      0.42718118	     33.78202310	     -3.37186872	     -5.83211274	     47.53088828	     47.53088828	      1.76059847	    -10.22029020	     -1.90913552	     10.97582078	     -4.58755417	     -8.77298710	     18.13386782	     18.13386782	     14.72436843	     -8.06326069	     -0.43228496	    -10.71777216	      5.58530168	      1.36647801	     -3.92034712	    -14.68223533	     -0.46772149	     26.42139336	     46.38541688	      0.00000000	      0.00000000	     16.87888081	    -16.88134777	     -6.73189529	     54.53611635	     46.60108301	      0.00000000	      0.00000000
     44.53400000	     -5.42399018	     -4.95481068	     -4.01210933	      0.95132538	      0.93464589	      0.42758763	     33.67828379	     -3.16445011	     -6.05314404	     43.73773435	     43.73773435	      1.97008085	     -8.85665478	     -1.84704077	     10.24347808	     -4.54007965	     -9.04069071	     17.46111181	     17.46111181	     14.87409599	     -7.76535078	     -0.55993826	    -10.76485500	      5.56516586	      1.49334673	     -5.64878639	    -14.93657023	     -0.71719506	     25.59557360	     46.42541644	      0.00000000	      0.00000000	     17.85067185	    -17.21443471	     -7.18026831	     55.82204099	     46.66903821	      0.00000000	      0.00000000
     44.54700000	     -5.52227069	     -4.89215657	     -4.19185145	      0.95076875	      0.93440509	      0.42806909	     33.44620404	     -2.99129013	     -6.37865648	     39.67217669	     39.67217669	      2.08682057	     -7.38285142	     -1.78213681	      9.60724689	     -4.45449977	     -9.30952458	     16.90060362	     16.90060362	     15.04234611	     -7.49624513	     -0.81115518	    -10.73891646	      5.49875624	      1.51039640	     -7.30240422	    -15.14827898	     -1.05613986	     24.96423617	     46.46531572	      0.00000000	      0.00000000	     18.67461766	    -17.58998096	     -7.67360893	     57.22739371	     46.74082980	      0.00000000	      0.00000000
     44.56000000	     -5.68602136	     -4.85384541	     -4.33265638	      0.95029572	      0.93396942	      0.42870150	     33.05941186	     -2.76644889	     -6.86874912	     35.31110571	     35.31110571	      2.15041727	     -5.75942283	     -1.57164189	      9.05803545	     -4.40623695	     -9.51187042	     16.36734069	     16.36734069	     15.18179583	     -7.22631571	     -1.09255783	    -10.65054128	      5.48086121	      1.45554722	     -8.89732717	    -15.30050183	     -1.41243764	     24.51124497	     46.49936797	      0.00000000	      0.00000000	     19.37155126	    -17.98065136	     -8.15482346	     58.62657504	     46.80976973	      0.00000000	      0.00000000
     44.57300000	     -5.84479549	     -4.75466078	     -4.45357143	      0.94997953	      0.93333871	      0.42945148	     32.51497624	     -2.55223631	     -7.42251505	     30.81861373	     30.81861373	      2.12433197	     -3.97114963	     -1.13717989	      8.52141422	     -4.29908121	     -9.72040912	     15.88541292	     15.88541292	     15.34646387	     -6.98228566	     -1.42279942	    -10.51193394	      5.36764532	      1.40230909	    -10.43373307	    -15.38735716	     -1.77467154	     24.21249818	     46.52734856	      0.00000000	      0.00000000	     20.02207854	    -18.37265138	     -8.62552270	     60.04782183	     46.87728053	      0.00000000	      0.00000000
     44.58600000	     -5.91419345	     -4.64156777	     -4.54528867	      0.94992606	      0.93263518	      0.43025532	     31.72781668	     -2.35086199	     -8.21228095	     26.33741651	     26.33741651	      2.03622893	     -1.90385040	     -0.46603684	      7.88210314	     -4.17163253	     -9.91383045	     15.41773332	     15.41773332	     15.52083265	     -6.71610404	     -1.83329802	    -10.46564231	      5.26663178	      1.38756872	    -11.96030923	    -15.46979648	     -2.21057924	     24.08778580	     46.55346577	      0.00000000	      0.00000000	     20.57154221	    -18.66387871	     -9.10112408	     61.62705651	     46.94707606	      0.00000000	      0.00000000
     44.59900000	     -5.93033601	     -4.43202788	     -4.62989682	      0.95013806	      0.93170823	      0.43115493	     30.93902294	     -2.27435402	     -9.26293285	     22.32705932	     22.32705932	      2.27509746	      0.71970583	      1.33983434	      7.12701086	     -3.93362945	    -10.13967023	     14.82673082	     14.82673082	     15.27281473	     -6.56338113	     -3.32474119	    -10.53059379	      5.00190313	      1.10543858	    -13.72172478	    -15.38743904	     -4.68999085	     25.53236177	     46.66546924	      0.00000000	      0.00000000	     20.25168588	    -19.00753463	    -10.41777170	     64.99341310	     47.13199798	      0.00000000	      0.00000000
     44.61200000	     -5.95781370	     -4.28044537	     -4.67020799	      0.95056808	      0.93070445	      0.43224764	     30.06347840	     -2.00469500	    -10.15090789	     18.51949707	     18.51949707	      2.01600220	      2.63100455	      2.63229202	      6.47849651	     -3.77325564	    -10.21992646	     14.48175843	     14.48175843	     15.54512071	     -6.39971056	     -3.57667135	    -10.43044728	      4.84758331	      1.14149585	    -15.01459417	    -15.39945150	     -4.94954143	     25.18928794	     46.68573550	      0.00000000	      0.00000000	     20.89949997	    -19.20799516	    -10.60393900	     65.84214093	     47.17030555	      0.00000000	      0.00000000
     44.62500000	     -6.07074554	     -3.98066991	     -4.74833532	      0.95111958	      0.92936367	      0.43353543	     29.46058635	     -1.85156814	    -10.90842697	     15.47808360	     15.47808360	      1.68642796	      4.29496059	      3.86842716	      5.95538478	     -3.47847507	    -10.37807507	     14.20448911	     14.20448911	     15.85169073	     -6.25092905	     -3.83949894	    -10.10483546	      4.46065455	      1.15177079	    -16.10825997	    -15.21890560	     -5.13017609	     25.04400712	     46.69309379	      0.00000000	      0.00000000	     21.45064182	    -19.44387555	    -10.78937280	     66.68105688	     47.20554321	      0.00000000	      0.00000000
     44.63800000	     -5.87564133	     -3.82548487	     -4.75821774	      0.95217456	      0.92845528	      0.43468170	     28.70606203	     -1.80826258	    -12.64722473	     13.52206664	     13.52206664	      2.45476204	      7.22978063	      7.21079578	      4.94429400	     -3.30676111	    -10.60253922	     13.71253772	     13.71253772	     16.05004410	     -5.74623931	     -4.48627523	    -10.27411112	      4.35085742	      1.32779601	    -17.67183093	    -15.18784096	     -6.23057895	     26.00010404	     46.71009365	      0.00000000	      0.00000000	     21.60333772	    -19.44591980	    -11.08911368	     68.69398699	     47.28167535	      0.00000000	      0.00000000
